<svg fill="none" height="100" viewBox="0 0 204 100" width="204" xmlns="http://www.w3.org/2000/svg" xmlns:xlink="http://www.w3.org/1999/xlink"><clipPath id="a"><path d="m0 0h203.81v99.37h-203.81z"/></clipPath><g clip-path="url(#a)" fill="#68b490"><path d="m9.6 99.37c1.39-49.73 42.25-89.77 92.31-89.77s90.92 40.04 92.3 89.77h9.6c-1.38-55.02-46.55-99.37-101.9-99.37-55.36 0-100.52 44.35-101.91 99.37z"/><path d="m27.66 99.37c1.37-31.29 27.24-56.33 58.87-56.33 31.62 0 57.5 25.04 58.87 56.33h9.6c-1.37-36.59-31.55-65.94-68.47-65.94s-67.1 29.35-68.47 65.94z"/><path d="m45.77 99.37c1.33-16.34 15.03-29.23 31.7-29.23s30.37 12.89 31.7 29.23h9.6c-1.35-21.63-19.33-38.83-41.3-38.83s-39.95 17.2-41.3 38.83z"/></g></svg>