<svg width="64" height="64" viewBox="0 0 64 64" fill="none" xmlns="http://www.w3.org/2000/svg">
<rect x="1.82855" y="25.6001" width="3.65714" height="13.7143" rx="1" fill="#68B490"/>
<path d="M51.2 18.2857C49.1802 18.2857 47.5429 19.9231 47.5429 21.9429C47.5429 22.5608 47.6961 23.1429 47.9666 23.6532C48.1824 24.0602 47.9195 24.6857 47.4589 24.6857H41.3143C40.2097 24.6857 39.3143 23.7903 39.3143 22.6857V16.5411C39.3143 16.0805 38.6888 15.8177 38.2818 16.0334C37.7714 16.3039 37.1893 16.4572 36.5714 16.4572C34.5517 16.4572 32.9143 14.8198 32.9143 12.8C32.9143 10.7802 34.5517 9.14288 36.5714 9.14288C37.1893 9.14288 37.7714 9.29611 38.2818 9.56665C38.6888 9.78238 39.3143 9.51952 39.3143 9.05889V2.91431C39.3143 1.80974 40.2097 0.914307 41.3143 0.914307H61.0857C62.1903 0.914307 63.0857 1.80974 63.0857 2.91431V22.6857C63.0857 23.7903 62.1903 24.6857 61.0857 24.6857H54.9411C54.4805 24.6857 54.2177 24.0602 54.4334 23.6532C54.7039 23.1429 54.8572 22.5608 54.8572 21.9429C54.8572 19.9231 53.2198 18.2857 51.2 18.2857Z" fill="#68B490"/>
<circle cx="3.65716" cy="45.7143" r="2.74286" fill="#68B490"/>
<circle cx="51.2" cy="52.1142" r="2.74286" fill="#68B490"/>
<circle cx="51.2" cy="44.8" r="1.82857" fill="#68B490"/>
<circle cx="20.1143" cy="12.8" r="1.82857" fill="#68B490"/>
<path d="M46.9524 26.5143V27.2643C47.2642 27.2643 47.5436 27.0714 47.6539 26.7797C47.7642 26.4879 47.6825 26.1584 47.4487 25.952L46.9524 26.5143ZM51.7904 26.5143L51.2941 25.952C51.0603 26.1584 50.9786 26.4879 51.0889 26.7797C51.1993 27.0714 51.4786 27.2643 51.7904 27.2643V26.5143ZM37.4857 17.0477H38.2357C38.2357 16.7358 38.0427 16.4565 37.751 16.3462C37.4593 16.2358 37.1298 16.3176 36.9234 16.5514L37.4857 17.0477ZM37.4857 12.2096L36.9234 12.7059C37.1298 12.9397 37.4593 13.0214 37.751 12.9111C38.0427 12.8008 38.2357 12.5215 38.2357 12.2096H37.4857ZM61.2571 26.5143V27.2643C61.6713 27.2643 62.0071 26.9286 62.0071 26.5143H61.2571ZM37.4857 2.74292V1.99292C37.0715 1.99292 36.7357 2.32871 36.7357 2.74292H37.4857ZM37.4857 26.5143H36.7357V27.2643H37.4857V26.5143ZM53.9428 3.49292C54.357 3.49292 54.6928 3.15713 54.6928 2.74292C54.6928 2.32871 54.357 1.99292 53.9428 1.99292V3.49292ZM58.7428 1.99292C58.3286 1.99292 57.9928 2.32871 57.9928 2.74292C57.9928 3.15713 58.3286 3.49292 58.7428 3.49292V1.99292ZM46.4643 23.7715C46.4643 22.1659 47.7658 20.8643 49.3714 20.8643V19.3643C46.9374 19.3643 44.9643 21.3375 44.9643 23.7715H46.4643ZM49.3714 20.8643C50.977 20.8643 52.2786 22.1659 52.2786 23.7715H53.7786C53.7786 21.3375 51.8054 19.3643 49.3714 19.3643V20.8643ZM47.4487 25.952C46.8439 25.4183 46.4643 24.6397 46.4643 23.7715H44.9643C44.9643 25.0879 45.5424 26.2702 46.4561 27.0767L47.4487 25.952ZM52.2786 23.7715C52.2786 24.6397 51.8989 25.4183 51.2941 25.952L52.2867 27.0767C53.2004 26.2702 53.7786 25.0879 53.7786 23.7715H52.2786ZM34.7428 17.5358C33.1373 17.5358 31.8357 16.2342 31.8357 14.6286H30.3357C30.3357 17.0626 32.3088 19.0358 34.7428 19.0358V17.5358ZM31.8357 14.6286C31.8357 13.0231 33.1373 11.7215 34.7428 11.7215V10.2215C32.3088 10.2215 30.3357 12.1946 30.3357 14.6286H31.8357ZM36.9234 16.5514C36.3896 17.1562 35.611 17.5358 34.7428 17.5358V19.0358C36.0592 19.0358 37.2415 18.4577 38.048 17.544L36.9234 16.5514ZM34.7428 11.7215C35.611 11.7215 36.3896 12.1011 36.9234 12.7059L38.048 11.7133C37.2415 10.7996 36.0592 10.2215 34.7428 10.2215V11.7215ZM60.5071 4.74292V26.5143H62.0071V4.74292H60.5071ZM38.2357 12.2096V2.74292H36.7357V12.2096H38.2357ZM36.7357 17.0477V26.5143H38.2357V17.0477H36.7357ZM51.7904 27.2643H61.2571V25.7643H51.7904V27.2643ZM46.9524 25.7643H37.4857V27.2643H46.9524V25.7643ZM37.4857 3.49292H53.9428V1.99292H37.4857V3.49292ZM58.7428 3.49292H59.2571V1.99292H58.7428V3.49292ZM62.0071 4.74292C62.0071 3.22414 60.7759 1.99292 59.2571 1.99292V3.49292C59.9475 3.49292 60.5071 4.05256 60.5071 4.74292H62.0071Z" fill="#0D3F4A"/>
<path d="M27.4286 27.1048L28.1786 27.1048C28.1786 26.7929 27.9856 26.5136 27.6939 26.4033C27.4022 26.2929 27.0727 26.3746 26.8663 26.6085L27.4286 27.1048ZM27.4286 22.2667L26.8663 22.763C27.0727 22.9968 27.4022 23.0785 27.6939 22.9682C27.9856 22.8579 28.1786 22.5785 28.1786 22.2667L27.4286 22.2667ZM15.5429 42.9714L15.5429 42.2214L15.5429 42.9714ZM17.9619 36.5714L17.9619 35.8214C17.6501 35.8214 17.3707 36.0144 17.2604 36.3061C17.1501 36.5978 17.2318 36.9274 17.4656 37.1337L17.9619 36.5714ZM13.1238 36.5714L13.6201 37.1337C13.854 36.9274 13.9357 36.5978 13.8253 36.3061C13.715 36.0144 13.4357 35.8214 13.1238 35.8214L13.1238 36.5714ZM3.65717 36.5714L2.90717 36.5714L2.90717 37.3214L3.65717 37.3214L3.65717 36.5714ZM27.4286 12.8L28.1786 12.8C28.1786 12.3858 27.8428 12.05 27.4286 12.05L27.4286 12.8ZM27.4286 36.5714L27.4286 37.3214L28.1786 37.3214L28.1786 36.5714L27.4286 36.5714ZM25.1429 12.05C24.7287 12.05 24.3929 12.3858 24.3929 12.8C24.3929 13.2142 24.7287 13.55 25.1429 13.55L25.1429 12.05ZM20.1143 13.55C20.5285 13.55 20.8643 13.2142 20.8643 12.8C20.8643 12.3858 20.5285 12.05 20.1143 12.05L20.1143 13.55ZM24.6857 27.5929C23.0802 27.5929 21.7786 26.2913 21.7786 24.6857L20.2786 24.6857C20.2786 27.1197 22.2517 29.0929 24.6857 29.0929L24.6857 27.5929ZM21.7786 24.6857C21.7786 23.0801 23.0802 21.7786 24.6857 21.7786L24.6857 20.2786C22.2517 20.2786 20.2786 22.2517 20.2786 24.6857L21.7786 24.6857ZM26.8663 26.6085C26.3325 27.2132 25.5539 27.5929 24.6857 27.5929L24.6857 29.0929C26.0021 29.0929 27.1844 28.5148 27.9909 27.6011L26.8663 26.6085ZM24.6857 21.7786C25.5539 21.7786 26.3325 22.1582 26.8663 22.763L27.9909 21.7704C27.1844 20.8567 26.0021 20.2786 24.6857 20.2786L24.6857 21.7786ZM18.45 39.3143C18.45 40.9199 17.1485 42.2214 15.5429 42.2214L15.5429 43.7214C17.9769 43.7214 19.95 41.7483 19.95 39.3143L18.45 39.3143ZM15.5429 42.2214C13.9373 42.2214 12.6357 40.9199 12.6357 39.3143L11.1357 39.3143C11.1357 41.7483 13.1089 43.7214 15.5429 43.7214L15.5429 42.2214ZM17.4656 37.1337C18.0704 37.6675 18.45 38.4461 18.45 39.3143L19.95 39.3143C19.95 37.9979 19.3719 36.8156 18.4582 36.0091L17.4656 37.1337ZM12.6357 39.3143C12.6357 38.4461 13.0154 37.6675 13.6201 37.1337L12.6275 36.0091C11.7138 36.8156 11.1357 37.9979 11.1357 39.3143L12.6357 39.3143ZM4.40717 36.5714L4.40716 14.8L2.90716 14.8L2.90717 36.5714L4.40717 36.5714ZM13.1238 35.8214L3.65717 35.8214L3.65717 37.3214L13.1238 37.3214L13.1238 35.8214ZM17.9619 37.3214L27.4286 37.3214L27.4286 35.8214L17.9619 35.8214L17.9619 37.3214ZM28.1786 22.2667L28.1786 12.8L26.6786 12.8L26.6786 22.2667L28.1786 22.2667ZM26.6786 27.1048L26.6786 36.5714L28.1786 36.5714L28.1786 27.1048L26.6786 27.1048ZM25.1429 13.55L27.4286 13.55L27.4286 12.05L25.1429 12.05L25.1429 13.55ZM5.65716 13.55L20.1143 13.55L20.1143 12.05L5.65716 12.05L5.65716 13.55ZM4.40716 14.8C4.40716 14.1097 4.96681 13.55 5.65716 13.55L5.65716 12.05C4.13838 12.05 2.90716 13.2812 2.90716 14.8L4.40716 14.8Z" fill="#0D3F4A"/>
<path d="M17.9619 36.5713L17.9619 35.8213C17.65 35.8213 17.3707 36.0143 17.2604 36.306C17.15 36.5977 17.2318 36.9273 17.4656 37.1337L17.9619 36.5713ZM13.1238 36.5713L13.6201 37.1337C13.8539 36.9273 13.9356 36.5977 13.8253 36.306C13.715 36.0143 13.4357 35.8213 13.1238 35.8213L13.1238 36.5713ZM33.8286 48.4571L33.0786 48.4571L33.8286 48.4571ZM27.4286 46.038L26.6786 46.038C26.6786 46.3499 26.8715 46.6292 27.1632 46.7395C27.455 46.8498 27.7845 46.7681 27.9909 46.5343L27.4286 46.038ZM27.4286 50.8761L27.9909 50.3798C27.7845 50.146 27.455 50.0643 27.1632 50.1746C26.8715 50.2849 26.6786 50.5642 26.6786 50.8761L27.4286 50.8761ZM27.4286 60.3428L27.4286 61.0928L28.1786 61.0928L28.1786 60.3428L27.4286 60.3428ZM3.65712 36.5713L3.65712 35.8213L2.90712 35.8213L2.90712 36.5713L3.65712 36.5713ZM27.4286 36.5713L28.1786 36.5713L28.1786 35.8213L27.4286 35.8213L27.4286 36.5713ZM2.90712 40.2285C2.90712 40.6427 3.24291 40.9785 3.65712 40.9785C4.07134 40.9785 4.40712 40.6427 4.40712 40.2285L2.90712 40.2285ZM4.40712 45.2571C4.40712 44.8428 4.07134 44.5071 3.65712 44.5071C3.24291 44.5071 2.90712 44.8428 2.90712 45.2571L4.40712 45.2571ZM18.45 39.3142C18.45 40.9198 17.1484 42.2213 15.5428 42.2213L15.5428 43.7213C17.9768 43.7213 19.95 41.7482 19.95 39.3142L18.45 39.3142ZM15.5428 42.2213C13.9373 42.2213 12.6357 40.9198 12.6357 39.3142L11.1357 39.3142C11.1357 41.7482 13.1088 43.7213 15.5428 43.7213L15.5428 42.2213ZM17.4656 37.1337C18.0704 37.6674 18.45 38.446 18.45 39.3142L19.95 39.3142C19.95 37.9978 19.3719 36.8155 18.4582 36.009L17.4656 37.1337ZM12.6357 39.3142C12.6357 38.446 13.0153 37.6674 13.6201 37.1337L12.6275 36.009C11.7138 36.8155 11.1357 37.9978 11.1357 39.3142L12.6357 39.3142ZM30.1714 45.5499C31.777 45.5499 33.0786 46.8515 33.0786 48.4571L34.5786 48.4571C34.5786 46.0231 32.6054 44.0499 30.1714 44.0499L30.1714 45.5499ZM33.0786 48.4571C33.0786 50.0626 31.777 51.3642 30.1714 51.3642L30.1714 52.8642C32.6054 52.8642 34.5786 50.8911 34.5786 48.4571L33.0786 48.4571ZM27.9909 46.5343C28.5246 45.9295 29.3032 45.5499 30.1714 45.5499L30.1714 44.0499C28.855 44.0499 27.6727 44.628 26.8662 45.5417L27.9909 46.5343ZM30.1714 51.3642C29.3032 51.3642 28.5246 50.9846 27.9909 50.3798L26.8662 51.3724C27.6727 52.2861 28.855 52.8642 30.1714 52.8642L30.1714 51.3642ZM27.4286 59.5928L5.65712 59.5928L5.65712 61.0928L27.4286 61.0928L27.4286 59.5928ZM26.6786 50.8761L26.6786 60.3428L28.1786 60.3428L28.1786 50.8761L26.6786 50.8761ZM28.1786 46.038L28.1786 36.5713L26.6786 36.5713L26.6786 46.038L28.1786 46.038ZM13.1238 35.8213L3.65712 35.8213L3.65712 37.3213L13.1238 37.3213L13.1238 35.8213ZM17.9619 37.3213L27.4286 37.3213L27.4286 35.8213L17.9619 35.8213L17.9619 37.3213ZM4.40712 40.2285L4.40712 36.5713L2.90712 36.5713L2.90712 40.2285L4.40712 40.2285ZM4.40712 58.3428L4.40712 45.2571L2.90712 45.2571L2.90712 58.3428L4.40712 58.3428ZM5.65712 59.5928C4.96677 59.5928 4.40712 59.0331 4.40712 58.3428L2.90712 58.3428C2.90712 59.8616 4.13834 61.0928 5.65712 61.0928L5.65712 59.5928Z" fill="#0D3F4A"/>
<path d="M27.4286 46.0381L26.6786 46.0381C26.6786 46.3499 26.8716 46.6293 27.1633 46.7396C27.455 46.8499 27.7845 46.7682 27.9909 46.5344L27.4286 46.0381ZM27.4286 50.8761L27.9909 50.3798C27.7845 50.146 27.455 50.0643 27.1633 50.1746C26.8716 50.285 26.6786 50.5643 26.6786 50.8761L27.4286 50.8761ZM39.3143 30.1714L39.3143 30.9214L39.3143 30.1714ZM36.8953 36.5714L36.8953 37.3214C37.2071 37.3214 37.4864 37.1284 37.5968 36.8367C37.7071 36.545 37.6254 36.2155 37.3916 36.0091L36.8953 36.5714ZM41.7333 36.5714L41.237 36.0091C41.0032 36.2155 40.9215 36.545 41.0318 36.8367C41.1421 37.1284 41.4215 37.3214 41.7333 37.3214L41.7333 36.5714ZM51.2 36.5714L51.95 36.5714C51.95 36.1572 51.6142 35.8214 51.2 35.8214L51.2 36.5714ZM27.4286 60.3428L26.6786 60.3428L26.6786 61.0928L27.4286 61.0928L27.4286 60.3428ZM27.4286 36.5714L27.4286 35.8214L26.6786 35.8214L26.6786 36.5714L27.4286 36.5714ZM50.45 44.3428C50.45 44.757 50.7858 45.0928 51.2 45.0928C51.6142 45.0928 51.95 44.757 51.95 44.3428L50.45 44.3428ZM51.95 52.3428C51.95 51.9286 51.6142 51.5928 51.2 51.5928C50.7858 51.5928 50.45 51.9286 50.45 52.3428L51.95 52.3428ZM30.1714 45.55C31.777 45.55 33.0786 46.8515 33.0786 48.4571L34.5786 48.4571C34.5786 46.0231 32.6054 44.05 30.1714 44.05L30.1714 45.55ZM33.0786 48.4571C33.0786 50.0627 31.777 51.3642 30.1714 51.3642L30.1714 52.8642C32.6054 52.8642 34.5786 50.8911 34.5786 48.4571L33.0786 48.4571ZM27.9909 46.5344C28.5247 45.9296 29.3033 45.55 30.1714 45.55L30.1714 44.05C28.855 44.05 27.6727 44.6281 26.8663 45.5418L27.9909 46.5344ZM30.1714 51.3642C29.3033 51.3642 28.5247 50.9846 27.9909 50.3798L26.8663 51.3724C27.6727 52.2861 28.855 52.8642 30.1714 52.8642L30.1714 51.3642ZM36.4072 33.8285C36.4072 32.223 37.7087 30.9214 39.3143 30.9214L39.3143 29.4214C36.8803 29.4214 34.9072 31.3945 34.9072 33.8285L36.4072 33.8285ZM39.3143 30.9214C40.9199 30.9214 42.2214 32.223 42.2214 33.8285L43.7214 33.8285C43.7214 31.3945 41.7483 29.4214 39.3143 29.4214L39.3143 30.9214ZM37.3916 36.0091C36.7868 35.4753 36.4072 34.6967 36.4072 33.8285L34.9072 33.8285C34.9072 35.1449 35.4853 36.3272 36.399 37.1337L37.3916 36.0091ZM42.2214 33.8285C42.2214 34.6967 41.8418 35.4753 41.237 36.0091L42.2296 37.1337C43.1433 36.3272 43.7214 35.1449 43.7214 33.8285L42.2214 33.8285ZM49.2 59.5928L27.4286 59.5928L27.4286 61.0928L49.2 61.0928L49.2 59.5928ZM41.7333 37.3214L51.2 37.3214L51.2 35.8214L41.7333 35.8214L41.7333 37.3214ZM36.8953 35.8214L27.4286 35.8214L27.4286 37.3214L36.8953 37.3214L36.8953 35.8214ZM26.6786 50.8761L26.6786 60.3428L28.1786 60.3428L28.1786 50.8761L26.6786 50.8761ZM28.1786 46.0381L28.1786 36.5714L26.6786 36.5714L26.6786 46.0381L28.1786 46.0381ZM50.45 36.5714L50.45 44.3428L51.95 44.3428L51.95 36.5714L50.45 36.5714ZM50.45 52.3428L50.45 58.3428L51.95 58.3428L51.95 52.3428L50.45 52.3428ZM49.2 61.0928C50.7188 61.0928 51.95 59.8616 51.95 58.3428L50.45 58.3428C50.45 59.0332 49.8904 59.5928 49.2 59.5928L49.2 61.0928Z" fill="#0D3F4A"/>
</svg>
