<svg width="64" height="64" viewBox="0 0 64 64" fill="none" xmlns="http://www.w3.org/2000/svg">
<rect x="1.82812" y="25.6" width="3.65714" height="13.7143" rx="1" fill="#04B477"/>
<path d="M51.1998 18.2857C49.18 18.2857 47.5426 19.9231 47.5426 21.9429C47.5426 22.5607 47.6959 23.1428 47.9664 23.6532C48.1821 24.0602 47.9193 24.6857 47.4586 24.6857H41.3141C40.2095 24.6857 39.3141 23.7903 39.3141 22.6857V16.5411C39.3141 16.0805 38.6885 15.8177 38.2816 16.0334C37.7712 16.3039 37.1891 16.4571 36.5712 16.4571C34.5514 16.4571 32.9141 14.8198 32.9141 12.8C32.9141 10.7802 34.5514 9.14286 36.5712 9.14286C37.1891 9.14286 37.7712 9.29609 38.2816 9.56663C38.6885 9.78236 39.3141 9.5195 39.3141 9.05888V2.91429C39.3141 1.80972 40.2095 0.914291 41.3141 0.914291H61.0855C62.1901 0.914291 63.0855 1.80972 63.0855 2.91429V22.6857C63.0855 23.7903 62.1901 24.6857 61.0855 24.6857H54.9409C54.4803 24.6857 54.2174 24.0602 54.4332 23.6532C54.7037 23.1428 54.8569 22.5607 54.8569 21.9429C54.8569 19.9231 53.2196 18.2857 51.1998 18.2857Z" fill="#04B477"/>
<circle cx="3.65692" cy="45.7143" r="2.74286" fill="#04B477"/>
<circle cx="51.1999" cy="52.1143" r="2.74286" fill="#04B477"/>
<circle cx="51.1997" cy="44.8" r="1.82857" fill="#04B477"/>
<circle cx="20.1137" cy="12.8" r="1.82857" fill="#04B477"/>
<path d="M46.9526 26.5143V27.2643C47.2645 27.2643 47.5438 27.0713 47.6541 26.7796C47.7644 26.4879 47.6827 26.1584 47.4489 25.952L46.9526 26.5143ZM51.7907 26.5143L51.2944 25.952C51.0606 26.1584 50.9789 26.4879 51.0892 26.7796C51.1995 27.0713 51.4788 27.2643 51.7907 27.2643V26.5143ZM31.0859 14.6286L31.8359 14.6286L31.0859 14.6286ZM37.4859 17.0476H38.2359C38.2359 16.7357 38.0429 16.4564 37.7512 16.3461C37.4595 16.2358 37.13 16.3175 36.9236 16.5513L37.4859 17.0476ZM37.4859 12.2095L36.9236 12.7058C37.13 12.9397 37.4595 13.0214 37.7512 12.911C38.0429 12.8007 38.2359 12.5214 38.2359 12.2095H37.4859ZM37.4859 2.74286V1.99286C37.0717 1.99286 36.7359 2.32865 36.7359 2.74286H37.4859ZM61.2574 26.5143V27.2643C61.6716 27.2643 62.0074 26.9285 62.0074 26.5143H61.2574ZM37.4859 26.5143H36.7359V27.2643H37.4859V26.5143ZM53.9431 3.49286C54.3573 3.49286 54.6931 3.15707 54.6931 2.74286C54.6931 2.32865 54.3573 1.99286 53.9431 1.99286V3.49286ZM58.7431 1.99286C58.3289 1.99286 57.9931 2.32865 57.9931 2.74286C57.9931 3.15707 58.3289 3.49286 58.7431 3.49286V1.99286ZM46.4645 23.7714C46.4645 22.1659 47.7661 20.8643 49.3717 20.8643V19.3643C46.9377 19.3643 44.9645 21.3374 44.9645 23.7714H46.4645ZM49.3717 20.8643C50.9772 20.8643 52.2788 22.1659 52.2788 23.7714H53.7788C53.7788 21.3374 51.8056 19.3643 49.3717 19.3643V20.8643ZM47.4489 25.952C46.8441 25.4182 46.4645 24.6396 46.4645 23.7714H44.9645C44.9645 25.0878 45.5426 26.2701 46.4563 27.0766L47.4489 25.952ZM52.2788 23.7714C52.2788 24.6396 51.8992 25.4182 51.2944 25.952L52.287 27.0766C53.2007 26.2701 53.7788 25.0878 53.7788 23.7714H52.2788ZM34.7431 17.5357C33.1375 17.5357 31.8359 16.2341 31.8359 14.6286L30.3359 14.6286C30.3359 17.0626 32.3091 19.0357 34.7431 19.0357L34.7431 17.5357ZM31.8359 14.6286C31.8359 13.023 33.1375 11.7214 34.7431 11.7214L34.7431 10.2214C32.3091 10.2214 30.3359 12.1946 30.3359 14.6286L31.8359 14.6286ZM36.9236 16.5513C36.3898 17.1561 35.6113 17.5357 34.7431 17.5357L34.7431 19.0357C36.0595 19.0357 37.2418 18.4576 38.0482 17.5439L36.9236 16.5513ZM34.7431 11.7214C35.6113 11.7214 36.3898 12.1011 36.9236 12.7058L38.0482 11.7132C37.2418 10.7995 36.0595 10.2214 34.7431 10.2214L34.7431 11.7214ZM60.5074 4.74286V26.5143H62.0074V4.74286H60.5074ZM38.2359 12.2095V2.74286H36.7359V12.2095H38.2359ZM36.7359 17.0476V26.5143H38.2359V17.0476H36.7359ZM51.7907 27.2643H61.2574V25.7643H51.7907V27.2643ZM46.9526 25.7643H37.4859V27.2643H46.9526V25.7643ZM37.4859 3.49286H53.9431V1.99286H37.4859V3.49286ZM58.7431 3.49286H59.2574V1.99286H58.7431V3.49286ZM62.0074 4.74286C62.0074 3.22408 60.7761 1.99286 59.2574 1.99286V3.49286C59.9477 3.49286 60.5074 4.0525 60.5074 4.74286H62.0074Z" fill="#10182C"/>
<path d="M27.4277 27.1048L28.1777 27.1048C28.1777 26.7929 27.9847 26.5136 27.693 26.4032C27.4013 26.2929 27.0717 26.3746 26.8654 26.6085L27.4277 27.1048ZM27.4277 22.2667L26.8654 22.763C27.0717 22.9968 27.4013 23.0785 27.693 22.9682C27.9847 22.8579 28.1777 22.5785 28.1777 22.2667L27.4277 22.2667ZM15.542 42.9714L15.542 42.2214L15.542 42.9714ZM17.961 36.5714L17.961 35.8214C17.6491 35.8214 17.3698 36.0144 17.2595 36.3061C17.1492 36.5978 17.2309 36.9274 17.4647 37.1337L17.961 36.5714ZM13.1229 36.5714L13.6192 37.1337C13.853 36.9274 13.9348 36.5978 13.8244 36.3061C13.7141 36.0144 13.4348 35.8214 13.1229 35.8214L13.1229 36.5714ZM3.65625 36.5714L2.90625 36.5714L2.90625 37.3214L3.65625 37.3214L3.65625 36.5714ZM27.4277 12.8L28.1777 12.8C28.1777 12.3858 27.8419 12.05 27.4277 12.05L27.4277 12.8ZM27.4277 36.5714L27.4277 37.3214L28.1777 37.3214L28.1777 36.5714L27.4277 36.5714ZM25.142 12.05C24.7278 12.05 24.392 12.3858 24.392 12.8C24.392 13.2142 24.7278 13.55 25.142 13.55L25.142 12.05ZM20.1134 13.55C20.5276 13.55 20.8634 13.2142 20.8634 12.8C20.8634 12.3858 20.5276 12.05 20.1134 12.05L20.1134 13.55ZM24.6848 27.5929C23.0793 27.5929 21.7777 26.2913 21.7777 24.6857L20.2777 24.6857C20.2777 27.1197 22.2508 29.0929 24.6848 29.0929L24.6848 27.5929ZM21.7777 24.6857C21.7777 23.0801 23.0792 21.7786 24.6848 21.7786L24.6848 20.2786C22.2508 20.2786 20.2777 22.2517 20.2777 24.6857L21.7777 24.6857ZM26.8654 26.6085C26.3316 27.2132 25.553 27.5929 24.6848 27.5929L24.6848 29.0929C26.0012 29.0929 27.1835 28.5148 27.99 27.6011L26.8654 26.6085ZM24.6848 21.7786C25.553 21.7786 26.3316 22.1582 26.8654 22.763L27.99 21.7704C27.1835 20.8567 26.0012 20.2786 24.6848 20.2786L24.6848 21.7786ZM18.4491 39.3143C18.4491 40.9199 17.1475 42.2214 15.542 42.2214L15.542 43.7214C17.976 43.7214 19.9491 41.7483 19.9491 39.3143L18.4491 39.3143ZM15.542 42.2214C13.9364 42.2214 12.6348 40.9199 12.6348 39.3143L11.1348 39.3143C11.1348 41.7483 13.108 43.7214 15.542 43.7214L15.542 42.2214ZM17.4647 37.1337C18.0695 37.6675 18.4491 38.4461 18.4491 39.3143L19.9491 39.3143C19.9491 37.9979 19.371 36.8156 18.4573 36.0091L17.4647 37.1337ZM12.6348 39.3143C12.6348 38.4461 13.0144 37.6675 13.6192 37.1337L12.6266 36.0091C11.7129 36.8156 11.1348 37.9979 11.1348 39.3143L12.6348 39.3143ZM4.40625 36.5714L4.40625 14.8L2.90625 14.8L2.90625 36.5714L4.40625 36.5714ZM13.1229 35.8214L3.65625 35.8214L3.65625 37.3214L13.1229 37.3214L13.1229 35.8214ZM17.961 37.3214L27.4277 37.3214L27.4277 35.8214L17.961 35.8214L17.961 37.3214ZM28.1777 22.2667L28.1777 12.8L26.6777 12.8L26.6777 22.2667L28.1777 22.2667ZM26.6777 27.1048L26.6777 36.5714L28.1777 36.5714L28.1777 27.1048L26.6777 27.1048ZM25.142 13.55L27.4277 13.55L27.4277 12.05L25.142 12.05L25.142 13.55ZM5.65625 13.55L20.1134 13.55L20.1134 12.05L5.65625 12.05L5.65625 13.55ZM4.40625 14.8C4.40625 14.1096 4.96589 13.55 5.65625 13.55L5.65625 12.05C4.13747 12.05 2.90625 13.2812 2.90625 14.8L4.40625 14.8Z" fill="#10182C"/>
<path d="M17.9614 36.5714L17.9614 35.8214C17.6496 35.8214 17.3703 36.0144 17.2599 36.3061C17.1496 36.5978 17.2313 36.9274 17.4651 37.1337L17.9614 36.5714ZM13.1234 36.5714L13.6197 37.1337C13.8535 36.9274 13.9352 36.5978 13.8249 36.3061C13.7146 36.0144 13.4352 35.8214 13.1234 35.8214L13.1234 36.5714ZM33.8281 48.4571L33.0781 48.4571L33.8281 48.4571ZM27.4281 46.0381L26.6781 46.0381C26.6781 46.35 26.8711 46.6293 27.1628 46.7396C27.4545 46.8499 27.7841 46.7682 27.9904 46.5344L27.4281 46.0381ZM27.4281 50.8762L27.9904 50.3799C27.7841 50.1461 27.4545 50.0644 27.1628 50.1747C26.8711 50.285 26.6781 50.5643 26.6781 50.8762L27.4281 50.8762ZM27.4281 60.3429L27.4281 61.0929L28.1781 61.0929L28.1781 60.3429L27.4281 60.3429ZM3.65669 36.5714L3.65669 35.8214L2.90669 35.8214L2.90669 36.5714L3.65669 36.5714ZM27.4281 36.5714L28.1781 36.5714L28.1781 35.8214L27.4281 35.8214L27.4281 36.5714ZM2.90669 40.2286C2.90669 40.6428 3.24248 40.9786 3.65669 40.9786C4.07091 40.9786 4.40669 40.6428 4.40669 40.2286L2.90669 40.2286ZM4.40669 45.2571C4.40669 44.8429 4.07091 44.5071 3.65669 44.5071C3.24248 44.5071 2.90669 44.8429 2.90669 45.2571L4.40669 45.2571ZM18.4496 39.3143C18.4496 40.9199 17.148 42.2214 15.5424 42.2214L15.5424 43.7214C17.9764 43.7214 19.9496 41.7483 19.9496 39.3143L18.4496 39.3143ZM15.5424 42.2214C13.9368 42.2214 12.6353 40.9199 12.6353 39.3143L11.1353 39.3143C11.1353 41.7483 13.1084 43.7214 15.5424 43.7214L15.5424 42.2214ZM17.4651 37.1337C18.0699 37.6675 18.4496 38.4461 18.4496 39.3143L19.9496 39.3143C19.9496 37.9979 19.3715 36.8156 18.4577 36.0091L17.4651 37.1337ZM12.6353 39.3143C12.6353 38.4461 13.0149 37.6675 13.6197 37.1337L12.6271 36.0091C11.7134 36.8156 11.1353 37.9979 11.1353 39.3143L12.6353 39.3143ZM30.171 45.55C31.7766 45.55 33.0781 46.8516 33.0781 48.4571L34.5781 48.4571C34.5781 46.0231 32.605 44.05 30.171 44.05L30.171 45.55ZM33.0781 48.4571C33.0781 50.0627 31.7766 51.3643 30.171 51.3643L30.171 52.8643C32.605 52.8643 34.5781 50.8911 34.5781 48.4571L33.0781 48.4571ZM27.9904 46.5344C28.5242 45.9296 29.3028 45.55 30.171 45.55L30.171 44.05C28.8546 44.05 27.6723 44.6281 26.8658 45.5418L27.9904 46.5344ZM30.171 51.3643C29.3028 51.3643 28.5242 50.9847 27.9904 50.3799L26.8658 51.3725C27.6723 52.2862 28.8546 52.8643 30.171 52.8643L30.171 51.3643ZM27.4281 59.5929L5.6567 59.5929L5.6567 61.0929L27.4281 61.0929L27.4281 59.5929ZM26.6781 50.8762L26.6781 60.3429L28.1781 60.3429L28.1781 50.8762L26.6781 50.8762ZM28.1781 46.0381L28.1781 36.5714L26.6781 36.5714L26.6781 46.0381L28.1781 46.0381ZM13.1234 35.8214L3.65669 35.8214L3.65669 37.3214L13.1234 37.3214L13.1234 35.8214ZM17.9614 37.3214L27.4281 37.3214L27.4281 35.8214L17.9614 35.8214L17.9614 37.3214ZM4.40669 40.2286L4.40669 36.5714L2.90669 36.5714L2.90669 40.2286L4.40669 40.2286ZM4.4067 58.3429L4.40669 45.2571L2.90669 45.2571L2.9067 58.3429L4.4067 58.3429ZM5.6567 59.5929C4.96634 59.5929 4.4067 59.0332 4.4067 58.3429L2.9067 58.3429C2.9067 59.8616 4.13791 61.0929 5.6567 61.0929L5.6567 59.5929Z" fill="#10182C"/>
<path d="M27.4278 46.0381L26.6778 46.0381C26.6778 46.35 26.8708 46.6293 27.1625 46.7396C27.4542 46.8499 27.7837 46.7682 27.9901 46.5344L27.4278 46.0381ZM27.4278 50.8762L27.9901 50.3799C27.7837 50.1461 27.4542 50.0644 27.1625 50.1747C26.8708 50.285 26.6778 50.5643 26.6778 50.8762L27.4278 50.8762ZM39.3135 30.1714V30.9214V30.1714ZM36.8945 36.5714L36.8945 37.3214C37.2063 37.3214 37.4857 37.1284 37.596 36.8367C37.7063 36.545 37.6246 36.2155 37.3908 36.0091L36.8945 36.5714ZM41.7325 36.5714L41.2362 36.0091C41.0024 36.2155 40.9207 36.545 41.031 36.8367C41.1414 37.1284 41.4207 37.3214 41.7325 37.3214L41.7325 36.5714ZM51.1992 36.5714L51.9492 36.5714C51.9492 36.1572 51.6134 35.8214 51.1992 35.8214L51.1992 36.5714ZM27.4278 60.3429L26.6778 60.3429L26.6778 61.0929L27.4278 61.0929L27.4278 60.3429ZM27.4278 36.5714L27.4278 35.8214L26.6778 35.8214L26.6778 36.5714L27.4278 36.5714ZM50.4492 44.3429C50.4492 44.7571 50.785 45.0929 51.1992 45.0929C51.6134 45.0929 51.9492 44.7571 51.9492 44.3429L50.4492 44.3429ZM51.9492 52.3429C51.9492 51.9286 51.6134 51.5929 51.1992 51.5929C50.785 51.5929 50.4492 51.9286 50.4492 52.3429L51.9492 52.3429ZM30.1706 45.55C31.7762 45.55 33.0778 46.8516 33.0778 48.4571L34.5778 48.4571C34.5778 46.0231 32.6046 44.05 30.1706 44.05L30.1706 45.55ZM33.0778 48.4571C33.0778 50.0627 31.7762 51.3643 30.1706 51.3643L30.1706 52.8643C32.6046 52.8643 34.5778 50.8911 34.5778 48.4571L33.0778 48.4571ZM27.9901 46.5344C28.5239 45.9296 29.3025 45.55 30.1706 45.55L30.1706 44.05C28.8542 44.05 27.6719 44.6281 26.8655 45.5418L27.9901 46.5344ZM30.1706 51.3643C29.3025 51.3643 28.5239 50.9847 27.9901 50.3799L26.8655 51.3725C27.6719 52.2862 28.8542 52.8643 30.1706 52.8643L30.1706 51.3643ZM36.4064 33.8286C36.4064 32.223 37.7079 30.9214 39.3135 30.9214V29.4214C36.8795 29.4214 34.9064 31.3946 34.9064 33.8286L36.4064 33.8286ZM39.3135 30.9214C40.9191 30.9214 42.2206 32.223 42.2206 33.8286L43.7206 33.8286C43.7206 31.3946 41.7475 29.4214 39.3135 29.4214V30.9214ZM37.3908 36.0091C36.786 35.4753 36.4064 34.6968 36.4064 33.8286L34.9064 33.8286C34.9064 35.145 35.4845 36.3273 36.3982 37.1337L37.3908 36.0091ZM42.2206 33.8286C42.2206 34.6968 41.841 35.4753 41.2362 36.0091L42.2288 37.1337C43.1425 36.3273 43.7206 35.145 43.7206 33.8286L42.2206 33.8286ZM49.1992 59.5929L27.4278 59.5929L27.4278 61.0929L49.1992 61.0929L49.1992 59.5929ZM41.7325 37.3214L51.1992 37.3214L51.1992 35.8214L41.7325 35.8214L41.7325 37.3214ZM36.8945 35.8214L27.4278 35.8214L27.4278 37.3214L36.8945 37.3214L36.8945 35.8214ZM26.6778 50.8762L26.6778 60.3429L28.1778 60.3429L28.1778 50.8762L26.6778 50.8762ZM28.1778 46.0381L28.1778 36.5714L26.6778 36.5714L26.6778 46.0381L28.1778 46.0381ZM50.4492 36.5714L50.4492 44.3429L51.9492 44.3429L51.9492 36.5714L50.4492 36.5714ZM50.4492 52.3429L50.4492 58.3429L51.9492 58.3429L51.9492 52.3429L50.4492 52.3429ZM49.1992 61.0929C50.718 61.0929 51.9492 59.8616 51.9492 58.3429L50.4492 58.3429C50.4492 59.0332 49.8896 59.5929 49.1992 59.5929L49.1992 61.0929Z" fill="#10182C"/>
</svg>
