<svg width="64" height="64" viewBox="0 0 64 64" fill="none" xmlns="http://www.w3.org/2000/svg">
<path d="M39.3305 14.3311C38.8538 6.83021 33.7277 2.7644 32.0519 2.7644C30.2937 2.7644 24.7376 7.30585 24.7376 15.4624L25.4949 33.9655C25.5826 36.1092 27.346 37.8019 29.4915 37.8019H34.6123C36.7578 37.8019 38.5212 36.1092 38.6089 33.9655L39.2749 17.6918" stroke="#0D3F4A" stroke-width="1.5" stroke-linecap="round"/>
<path d="M25.0319 25.4043L20.2771 32.0135C20.1693 32.1634 20.105 32.3401 20.0915 32.5242L19.9547 34.3852M25.5731 35.3913L21.2697 37.952C20.5746 38.3656 19.7017 37.8259 19.761 37.0193L19.7932 36.5816" stroke="#0D3F4A" stroke-width="1.5" stroke-linecap="round" stroke-linejoin="round"/>
<path d="M39.3975 25.4043L41.4464 28.2523M38.8563 35.3913L43.1597 37.952C43.8548 38.3656 44.7277 37.8259 44.6684 37.0193L44.3385 32.5329C44.3246 32.3434 44.2569 32.1617 44.1434 32.0092L42.9559 30.4135" stroke="#0D3F4A" stroke-width="1.5" stroke-linecap="round" stroke-linejoin="round"/>
<circle cx="32.0519" cy="16.0301" r="3.68119" fill="#68B490"/>
<circle cx="19.979" cy="45.5231" r="2.31221" fill="#68B490"/>
<circle cx="30.2423" cy="57.5999" r="1.80967" fill="#68B490"/>
<circle cx="32" cy="50.9954" r="1.42555" fill="#68B490"/>
<circle cx="38.5651" cy="56.4741" r="1.76043" fill="#68B490"/>
<circle cx="23.5856" cy="58.3089" r="1.29448" fill="#68B490"/>
<circle cx="13.8798" cy="50.7449" r="1.6946" fill="#68B490"/>
<circle cx="15.9843" cy="58.7384" r="0.723996" fill="#68B490"/>
<circle cx="27.2725" cy="53.9896" r="0.723996" fill="#68B490"/>
<circle cx="47.7339" cy="59.1986" r="0.723996" fill="#68B490"/>
<circle cx="43.1145" cy="44.4368" r="1.72736" fill="#68B490"/>
<circle cx="50.8847" cy="46.7763" r="2.68818" fill="#68B490"/>
<circle cx="53.5728" cy="54.7136" r="1.56026" fill="#68B490"/>
<path d="M26.5016 8.68066L32.1675 8.68066M37.9474 8.68067L34.7968 8.68066" stroke="#0D3F4A" stroke-width="1.5" stroke-linecap="round" stroke-linejoin="round"/>
<path d="M28.8329 38.2643C29.0165 37.9762 29.3345 37.8018 29.6762 37.8018H34.1834C34.5251 37.8018 34.8431 37.9762 35.0267 38.2643L36.8799 41.172C37.3041 41.8377 36.826 42.7095 36.0366 42.7095H27.823C27.0336 42.7095 26.5555 41.8377 26.9797 41.172L28.8329 38.2643Z" stroke="#0D3F4A" stroke-width="1.5"/>
<path d="M31.9281 44.6077V50.85" stroke="#0D3F4A" stroke-width="1.5" stroke-linecap="round" stroke-linejoin="round"/>
<path d="M28.3316 45.1453C28.3315 47.0469 27.6205 51.1643 24.7763 52.4211" stroke="#0D3F4A" stroke-width="1.5" stroke-linecap="round" stroke-linejoin="round"/>
<path d="M35.5246 44.9797C35.7313 47.0605 36.7565 51.4287 39.2038 52.2555" stroke="#0D3F4A" stroke-width="1.5" stroke-linecap="round" stroke-linejoin="round"/>
<path d="M37.9223 50.9327C38.7905 50.4642 40.8244 49.9819 42.015 51.8008" stroke="#0D3F4A" stroke-width="1.5" stroke-linecap="round" stroke-linejoin="round"/>
<path d="M41.5189 52.9583C42.4422 52.3658 44.082 51.4701 46.0249 52.6276C47.5783 53.553 47.899 55.0942 47.9679 55.6041" stroke="#0D3F4A" stroke-width="1.5" stroke-linecap="round" stroke-linejoin="round"/>
<path d="M26.5485 51.0817C25.6 50.5709 23.2944 50.0967 21.66 52.2855" stroke="#0D3F4A" stroke-width="1.5" stroke-linecap="round" stroke-linejoin="round"/>
<path d="M22.5721 53.0152C21.9033 52.3585 20.0128 51.2813 18.0957 52.4316C16.3119 53.5019 16.2608 55.0338 16.2608 55.5689" stroke="#0D3F4A" stroke-width="1.5" stroke-linecap="round" stroke-linejoin="round"/>
<path d="M16.2984 54.708C15.6514 54.676 14.0171 55.2687 12.656 57.8952C11.2948 60.5216 11.8652 61.2741 12.3205 61.322" stroke="#0D3F4A" stroke-width="1.5" stroke-linecap="round" stroke-linejoin="round"/>
<path d="M20.2603 56.3888C20.7428 56.0046 21.9223 55.4131 22.7801 56.1208C23.6379 56.8284 23.6379 57.8274 23.5306 58.2384" stroke="#0D3F4A" stroke-width="1.5" stroke-linecap="round" stroke-linejoin="round"/>
<path d="M30.2589 56.925C30.1606 56.4425 30.2296 55.4257 31.0362 54.8341C32.2425 53.9495 33.1271 54.3248 33.7168 54.8341" stroke="#0D3F4A" stroke-width="1.5" stroke-linecap="round" stroke-linejoin="round"/>
<path d="M47.7339 54.7041C48.6328 54.754 50.6524 55.5311 51.5393 58.2398C52.4262 60.9485 51.749 61.1862 51.2996 60.9665" stroke="#0D3F4A" stroke-width="1.5" stroke-linecap="round" stroke-linejoin="round"/>
<path d="M38.5651 56.2023C39.3142 55.6629 40.243 54.9438 41.921 56.412C43.208 57.5382 42.8099 58.879 42.7 59.1986" stroke="#0D3F4A" stroke-width="1.5" stroke-linecap="round" stroke-linejoin="round"/>
</svg>
