<svg width="64" height="64" viewBox="0 0 64 64" fill="none" xmlns="http://www.w3.org/2000/svg">
<path d="M61.6777 44.0137H42.9806C41.7006 44.0137 40.6674 42.9805 40.6674 41.7005V31.5885C40.6674 30.3085 41.7006 29.2754 42.9806 29.2754H61.6777C62.9577 29.2754 63.9908 30.3085 63.9908 31.5885V41.7005C63.9908 42.9805 62.9577 44.0137 61.6777 44.0137Z" fill="#68B490"/>
<path d="M21.0194 31.0582H2.31314C1.03314 31.0582 0 30.0251 0 28.7451V24.3839C0 23.1039 1.03314 22.0708 2.31314 22.0708H21.0103C22.2903 22.0708 23.3234 23.1039 23.3234 24.3839V28.7451C23.3326 30.0251 22.2994 31.0582 21.0194 31.0582Z" fill="#68B490"/>
<path d="M50.2857 46.3999V9.62737C50.2857 7.21365 48.1737 5.25708 45.568 5.25708H13.8606C11.2549 5.25708 9.14288 7.21365 9.14288 9.62737V46.3908" stroke="#0D3F4A" stroke-width="1.5" stroke-miterlimit="10" stroke-linecap="round"/>
<path d="M13.7143 13.7051H45.696" stroke="#0D3F4A" stroke-width="1.5" stroke-miterlimit="10" stroke-linecap="round"/>
<path d="M14.8389 10.6422C15.4095 10.6422 15.872 10.1797 15.872 9.60907C15.872 9.03848 15.4095 8.57593 14.8389 8.57593C14.2683 8.57593 13.8057 9.03848 13.8057 9.60907C13.8057 10.1797 14.2683 10.6422 14.8389 10.6422Z" fill="#0D3F4A"/>
<path d="M18.88 10.6422C19.4506 10.6422 19.9131 10.1797 19.9131 9.60907C19.9131 9.03848 19.4506 8.57593 18.88 8.57593C18.3094 8.57593 17.8469 9.03848 17.8469 9.60907C17.8469 10.1797 18.3094 10.6422 18.88 10.6422Z" fill="#0D3F4A"/>
<path d="M22.9211 10.6422C23.4917 10.6422 23.9543 10.1797 23.9543 9.60907C23.9543 9.03848 23.4917 8.57593 22.9211 8.57593C22.3506 8.57593 21.888 9.03848 21.888 9.60907C21.888 10.1797 22.3506 10.6422 22.9211 10.6422Z" fill="#0D3F4A"/>
<path d="M15.4514 41.8286H29.1566" stroke="#0D3F4A" stroke-width="1.5" stroke-miterlimit="10" stroke-linecap="round"/>
<path d="M25.6 60.1142H16.5303C15.2503 60.1142 14.2172 59.0811 14.2172 57.8011V50.0753C14.2172 48.7953 15.2503 47.7622 16.5303 47.7622H25.6C26.88 47.7622 27.9132 48.7953 27.9132 50.0753V57.8011C27.9223 59.0719 26.88 60.1142 25.6 60.1142Z" fill="#68B490"/>
<path d="M4.57141 51.6846H54.8571" stroke="#0D3F4A" stroke-width="1.5" stroke-miterlimit="10" stroke-linecap="round"/>
</svg>
