<svg width="64" height="64" viewBox="0 0 64 64" fill="none" xmlns="http://www.w3.org/2000/svg">
<path d="M61.6783 44.0137H42.9811C41.7011 44.0137 40.668 42.9806 40.668 41.7006V31.5886C40.668 30.3086 41.7011 29.2754 42.9811 29.2754H61.6783C62.9583 29.2754 63.9914 30.3086 63.9914 31.5886V41.7006C63.9914 42.9806 62.9583 44.0137 61.6783 44.0137Z" fill="#04B477"/>
<path d="M21.0194 31.0583H2.31314C1.03314 31.0583 0 30.0252 0 28.7452V24.384C0 23.104 1.03314 22.0709 2.31314 22.0709H21.0103C22.2903 22.0709 23.3234 23.104 23.3234 24.384V28.7452C23.3326 30.0252 22.2994 31.0583 21.0194 31.0583Z" fill="#04B477"/>
<path d="M50.2854 46.4V9.62743C50.2854 7.21371 48.1734 5.25714 45.5677 5.25714H13.8603C11.2546 5.25714 9.14258 7.21371 9.14258 9.62743V46.3909" stroke="#10182C" stroke-width="1.5" stroke-miterlimit="10" stroke-linecap="round"/>
<path d="M13.7148 13.7051H45.6966" stroke="#10182C" stroke-width="1.5" stroke-miterlimit="10" stroke-linecap="round"/>
<path d="M14.8398 10.6423C15.4104 10.6423 15.8729 10.1797 15.8729 9.60915C15.8729 9.03856 15.4104 8.576 14.8398 8.576C14.2692 8.576 13.8066 9.03856 13.8066 9.60915C13.8066 10.1797 14.2692 10.6423 14.8398 10.6423Z" fill="#10182C"/>
<path d="M18.8808 10.6423C19.4514 10.6423 19.9139 10.1797 19.9139 9.60915C19.9139 9.03856 19.4514 8.576 18.8808 8.576C18.3102 8.576 17.8477 9.03856 17.8477 9.60915C17.8477 10.1797 18.3102 10.6423 18.8808 10.6423Z" fill="#10182C"/>
<path d="M22.9218 10.6423C23.4924 10.6423 23.955 10.1797 23.955 9.60915C23.955 9.03856 23.4924 8.576 22.9218 8.576C22.3512 8.576 21.8887 9.03856 21.8887 9.60915C21.8887 10.1797 22.3512 10.6423 22.9218 10.6423Z" fill="#10182C"/>
<path d="M15.4512 41.8286H29.1563" stroke="#10182C" stroke-width="1.5" stroke-miterlimit="10" stroke-linecap="round"/>
<path d="M25.5997 60.1143H16.5299C15.2499 60.1143 14.2168 59.0811 14.2168 57.8011V50.0754C14.2168 48.7954 15.2499 47.7623 16.5299 47.7623H25.5997C26.8797 47.7623 27.9128 48.7954 27.9128 50.0754V57.8011C27.9219 59.072 26.8797 60.1143 25.5997 60.1143Z" fill="#04B477"/>
<path d="M4.57227 51.6846H54.858" stroke="#10182C" stroke-width="1.5" stroke-miterlimit="10" stroke-linecap="round"/>
</svg>
