<?xml version="1.0" encoding="utf-8"?>
<!-- Generator: Adobe Illustrator 26.5.0, SVG Export Plug-In . SVG Version: 6.00 Build 0)  -->
<svg version="1.1" xmlns="http://www.w3.org/2000/svg" xmlns:xlink="http://www.w3.org/1999/xlink" x="0px" y="0px"
	 viewBox="0 0 112 107.5" style="enable-background:new 0 0 112 107.5;" xml:space="preserve">
<style type="text/css">
	.st0{fill:none;stroke:#68B490;stroke-width:3;stroke-miterlimit:10;}
	.st1{fill:none;stroke:#0D3F4A;stroke-width:3;stroke-miterlimit:10;}
	.st2{fill:#0D3F4A;stroke:#0D3F4A;stroke-width:3;stroke-miterlimit:10;}
	.st3{fill:#68B490;}
	.st4{fill:#0D3F4A;}
	.st5{fill:#FFFFFF;}
</style>
<g id="Layer_1">
	<g>
		<polyline class="st0" points="15.5,30.8 28.8,30.8 83.2,76.8 96.5,76.8 		"/>
		<polyline class="st0" points="96.5,30.8 83.2,30.8 28.8,76.8 15.5,76.8 		"/>
	</g>
	<circle class="st1" cx="23.5" cy="9.8" r="7"/>
	<circle class="st2" cx="56" cy="9.8" r="7"/>
	<circle class="st2" cx="56" cy="97.8" r="7"/>
	<circle class="st1" cx="8.5" cy="30.8" r="7"/>
	<circle class="st1" cx="23.5" cy="97.8" r="7"/>
	<circle class="st1" cx="8.5" cy="76.8" r="7"/>
	<circle class="st1" cx="88.5" cy="9.8" r="7"/>
	<circle class="st1" cx="103.5" cy="30.8" r="7"/>
	<circle class="st1" cx="88.5" cy="97.8" r="7"/>
	<circle class="st1" cx="103.5" cy="76.8" r="7"/>
	<line class="st1" x1="56" y1="16.8" x2="56" y2="90.8"/>
	<line class="st1" x1="6.8" y1="53.8" x2="105.6" y2="53.8"/>
	<circle class="st1" cx="55.9" cy="53.7" r="28.2"/>
	<circle class="st3" cx="40" cy="3.1" r="3.1"/>
	<circle class="st3" cx="40" cy="18.5" r="3.1"/>
	<circle class="st3" cx="72" cy="3.1" r="3.1"/>
	<circle class="st3" cx="72" cy="18.5" r="3.1"/>
	<circle class="st3" cx="40" cy="104.4" r="3.1"/>
	<circle class="st3" cx="40" cy="89" r="3.1"/>
	<circle class="st3" cx="72" cy="104.4" r="3.1"/>
	<circle class="st3" cx="72" cy="89" r="3.1"/>
	<path class="st4" d="M74.1,56.1v-4.3l-2.9-0.5c-0.2-0.9-0.4-1.9-0.7-2.7l2.3-1.9L70.6,43l-2.8,1.1c-0.6-0.7-1.3-1.4-2-2l1.1-2.8
		l-3.7-2.2l-1.9,2.3c-0.9-0.3-1.8-0.6-2.7-0.7l-0.5-2.9h-4.3l-0.5,2.9c-0.9,0.2-1.9,0.4-2.7,0.7l-1.9-2.3L45,39.3l1.1,2.8
		c-0.7,0.6-1.4,1.3-2,2L41.3,43l-2.2,3.7l2.3,1.9c-0.3,0.9-0.6,1.8-0.7,2.7l-2.9,0.5v4.3l2.9,0.5c0.2,0.9,0.4,1.9,0.7,2.7l-2.3,1.9
		l2.2,3.7l2.8-1.1c0.6,0.7,1.3,1.4,2,2L45,68.7l3.7,2.2l1.9-2.3c0.9,0.3,1.8,0.6,2.7,0.7l0.5,2.9l4.3,0l0.5-2.9
		c0.9-0.2,1.9-0.4,2.7-0.7l1.9,2.3l3.7-2.2l-1.1-2.8c0.7-0.6,1.4-1.3,2-2l2.8,1.1l2.2-3.7l-2.3-1.9c0.3-0.9,0.6-1.8,0.7-2.7
		L74.1,56.1z"/>
	<circle class="st5" cx="55.9" cy="53.8" r="8.9"/>
</g>
<g id="Layer_2">
</g>
</svg>
