<svg width="893" height="82" viewBox="0 0 893 82" fill="none" xmlns="http://www.w3.org/2000/svg">
<path d="M54.4285 25.0293C31.328 25.0293 12.3727 43.8198 11.2751 67.8068L11.2557 68.2343H17.9842L18.0046 67.8481C18.4838 58.5218 22.2743 49.7019 28.6555 43.065C31.9708 39.6023 35.9097 36.8381 40.2519 34.927C44.735 32.963 49.5568 31.9506 54.4288 31.9506C59.3007 31.9506 64.1226 32.963 68.6056 34.927C72.9481 36.8385 76.8872 39.6031 80.2028 43.0661C86.5841 49.7028 90.3745 58.5229 90.8532 67.8492L90.8739 68.2354H97.6016L97.5824 67.8079C96.4848 43.8198 77.5295 25.0293 54.4285 25.0293ZM48.8582 42.3615C35.1031 42.3615 23.6156 53.5358 22.7055 67.8012L22.678 68.2362H29.4114L29.4418 67.8622C29.8338 63.0965 31.8361 58.6232 35.1002 55.2207C36.8963 53.3408 39.0377 51.8478 41.3998 50.8287C43.7618 49.8096 46.2972 49.2848 48.8582 49.2848C51.4192 49.2848 53.9546 49.8096 56.3167 50.8287C58.6787 51.8478 60.8201 53.3408 62.6162 55.2207C65.8801 58.6234 67.8824 63.0966 68.2746 67.8622L68.305 68.2362H75.0385L75.0109 67.8012C74.1009 53.5358 62.6131 42.3615 48.8582 42.3615ZM127.992 67.8163C127.566 50.6318 120.637 34.2986 108.683 22.2995C96.7291 10.3004 80.6956 3.58487 64.0016 3.58487C47.3076 3.58487 31.2741 10.3004 19.32 22.2995C7.36589 34.2986 0.437069 50.6318 0.0110132 67.8163L0 68.2354H6.72478L6.73658 67.839C7.15865 52.489 13.377 37.9135 24.0703 27.2099C34.7635 16.5062 49.0887 10.5181 64.0016 10.5181C78.9146 10.5181 93.2398 16.5062 103.933 27.2099C114.626 37.9135 120.845 52.489 121.267 67.839L121.278 68.2354H128.003L127.992 67.8163Z" fill="#04B477"/>
<path d="M142.773 8.38411H165.627C176.935 8.38411 184.843 14.0027 184.843 25.0771C184.843 29.556 182.234 34.3604 178.279 36.6403C183.341 38.8388 186.979 44.4574 186.979 50.1579C186.979 61.8023 179.308 68.2354 166.655 68.2354H142.773V8.38411ZM165.399 31.6228C169.664 31.6228 171.905 29.5387 171.905 25.8165C171.905 22.3179 169.518 20.1593 165.544 20.1593H155.713V31.6233L165.399 31.6228ZM166.789 56.4011C171.633 56.4011 173.875 53.7953 173.875 49.9982C173.875 46.2012 171.127 43.6705 167.295 43.6705H155.8V56.4011H166.789Z" fill="#10182C"/>
<path d="M191.939 44.5558C191.939 30.0954 202.911 19.431 217.305 19.431C231.699 19.431 242.669 30.0954 242.669 44.5558C242.669 58.9257 231.699 69.5903 217.305 69.5903C202.911 69.5903 191.939 58.9254 191.939 44.5558ZM217.305 57.2084C224.414 57.2084 229.592 51.876 229.592 44.5558C229.592 37.2355 224.414 31.9029 217.305 31.9029C210.195 31.9029 205.017 37.2352 205.017 44.5558C205.017 51.8763 210.196 57.2084 217.305 57.2084Z" fill="#10182C"/>
<path d="M248.457 1.80817H261.359V68.2349H248.457V1.80817Z" fill="#10182C"/>
<path d="M268.91 44.5563C268.91 29.9152 279.091 19.4315 293.222 19.4315C298.313 19.4315 302.877 20.9681 306.563 23.6793V1.80817H319.465V48.8041L326.662 68.2349H313.409L307.353 51.8773V64.1689C304.632 67.5128 298.137 69.5912 291.905 69.5912C278.653 69.5903 268.91 59.1069 268.91 44.5563ZM294.539 57.2089C301.648 57.2089 306.826 51.8765 306.826 44.5563C306.826 37.236 301.648 31.9034 294.539 31.9034C287.429 31.9034 282.251 37.2358 282.251 44.5563C282.251 51.8768 287.429 57.2089 294.539 57.2089Z" fill="#10182C"/>
<path d="M338.774 0.000220111C340.362 0.0091112 341.912 0.502802 343.228 1.41886C344.544 2.33492 345.566 3.6322 346.166 5.14665C346.766 6.66111 346.916 8.32472 346.598 9.9271C346.28 11.5295 345.507 12.9987 344.378 14.1489C343.248 15.2991 341.813 16.0786 340.254 16.3889C338.694 16.6992 337.08 16.5264 335.616 15.8923C334.152 15.2581 332.904 14.1911 332.028 12.8263C331.153 11.4614 330.691 9.85991 330.699 8.22437C330.703 7.13786 330.915 6.06282 331.323 5.0609C331.732 4.05899 332.328 3.14992 333.078 2.38584C333.828 1.62176 334.718 1.0177 335.695 0.608317C336.672 0.198937 337.719 -0.00771434 338.774 0.000220111ZM332.279 21.2388H345.181V68.2345H332.279V21.2388Z" fill="#10182C"/>
<path d="M354.834 21.2388H367.736V26.9322C370.632 21.9614 375.196 19.431 381.515 19.431C392.4 19.431 398.103 26.9322 398.103 41.3021V68.2344H385.202V43.1998C385.202 34.9756 382.92 31.7222 377.215 31.7222C370.983 31.7222 367.736 36.2406 367.736 43.5614V68.2341H354.834V21.2388Z" fill="#10182C"/>
<path d="M878.456 68.96C869.88 68.96 864.504 64.736 863.48 58.72L869.24 56.288C869.496 61.344 873.08 64.096 878.456 64.096C882.68 64.096 885.944 62.624 885.944 59.168C885.944 51.36 864.568 57.184 864.568 43.872C864.568 37.92 870.648 33.632 877.88 33.632C885.624 33.632 891 37.536 891.832 43.36L886.2 45.472C885.944 41.184 882.936 38.496 877.88 38.496C873.336 38.496 870.648 40.672 870.648 43.488C870.648 51.36 892.28 45.728 892.28 58.784C892.28 65.312 886.776 68.96 878.456 68.96Z" fill="#0E794E"/>
<path d="M844.991 68.96C834.623 68.96 827.391 61.92 827.391 51.296C827.391 40.928 834.815 33.632 844.991 33.632C851.903 33.632 857.791 37.408 859.903 42.592L854.719 45.792C853.503 41.44 849.407 39.072 844.991 39.072C838.079 39.072 833.407 43.936 833.407 51.296C833.407 58.72 837.823 63.52 844.991 63.52C849.663 63.52 853.759 60.64 854.911 56.864L859.903 60.064C857.663 65.184 851.775 68.96 844.991 68.96Z" fill="#0E794E"/>
<path d="M805.648 68.96C795.664 68.96 787.92 61.728 787.92 51.296C787.92 40.864 795.664 33.632 805.648 33.632C815.696 33.632 823.504 40.864 823.504 51.296C823.504 61.728 815.696 68.96 805.648 68.96ZM805.648 63.52C812.496 63.52 817.424 58.72 817.424 51.296C817.424 43.936 812.496 39.072 805.648 39.072C798.8 39.072 793.936 43.936 793.936 51.296C793.936 58.72 798.928 63.52 805.648 63.52Z" fill="#0E794E"/>
<path d="M745.463 68V20.96H761.719C775.351 20.96 783.607 28.832 783.607 43.872C783.607 58.912 775.351 68 761.719 68H745.463ZM751.543 62.496H761.207C771.255 62.496 777.591 55.84 777.591 43.872C777.591 31.712 771.255 26.464 761.207 26.464H751.543V62.496Z" fill="#0E794E"/>
<path d="M707.496 68V34.72H713.384V40.544C716.008 35.424 720.488 34.08 723.944 34.08C724.84 34.08 725.48 34.144 726.312 34.336V40.352C725.288 40.096 724.328 39.968 723.304 39.968C717.608 39.968 713.384 43.232 713.384 51.872V68H707.496Z" fill="#0E794E"/>
<path d="M685.498 68.96C675.322 68.96 668.602 61.728 668.602 51.424C668.602 41.248 675.514 33.632 685.05 33.632C694.97 33.632 700.986 40.608 700.986 50.784C700.986 51.552 700.986 52.384 700.858 53.28H674.682C675.386 60.32 679.866 63.84 685.626 63.84C690.746 63.84 694.202 61.728 696.122 57.312L700.538 61.088C697.53 66.528 691.514 68.96 685.498 68.96ZM674.81 48.672H694.65V48.608C694.65 42.528 690.81 38.816 684.922 38.816C679.93 38.816 675.706 42.144 674.81 48.672Z" fill="#0E794E"/>
<path d="M629.367 81.76V34.72H635.255V39.52C637.943 36 642.167 33.632 647.799 33.632C657.975 33.632 664.631 41.44 664.631 51.36C664.631 61.216 657.975 68.96 647.799 68.96C642.039 68.96 637.943 66.656 635.255 63.2V81.76H629.367ZM646.839 63.584C654.199 63.584 658.615 58.208 658.615 51.36C658.615 44.448 654.199 39.008 646.839 39.008C639.735 39.008 635.063 44.448 635.063 51.36C635.063 58.272 639.735 63.584 646.839 63.584Z" fill="#0E794E"/>
<path d="M605.578 68.96C595.594 68.96 587.85 61.728 587.85 51.296C587.85 40.864 595.594 33.632 605.578 33.632C615.626 33.632 623.434 40.864 623.434 51.296C623.434 61.728 615.626 68.96 605.578 68.96ZM605.578 63.52C612.426 63.52 617.354 58.72 617.354 51.296C617.354 43.936 612.426 39.072 605.578 39.072C598.73 39.072 593.866 43.936 593.866 51.296C593.866 58.72 598.858 63.52 605.578 63.52Z" fill="#0E794E"/>
<path d="M575.561 68V20.96H581.449V68H575.561Z" fill="#0E794E"/>
<path d="M553.244 68.96C543.068 68.96 536.348 61.728 536.348 51.424C536.348 41.248 543.26 33.632 552.796 33.632C562.716 33.632 568.732 40.608 568.732 50.784C568.732 51.552 568.732 52.384 568.604 53.28H542.428C543.132 60.32 547.612 63.84 553.372 63.84C558.492 63.84 561.948 61.728 563.868 57.312L568.284 61.088C565.276 66.528 559.26 68.96 553.244 68.96ZM542.556 48.672H562.396V48.608C562.396 42.528 558.556 38.816 552.668 38.816C547.676 38.816 543.452 42.144 542.556 48.672Z" fill="#0E794E"/>
<path d="M514.672 68L500.592 34.72H507.056L517.872 61.344L528.624 34.72H534.96L521.008 68H514.672Z" fill="#0E794E"/>
<path d="M483.24 68.96C473.064 68.96 466.344 61.728 466.344 51.424C466.344 41.248 473.256 33.632 482.792 33.632C492.712 33.632 498.728 40.608 498.728 50.784C498.728 51.552 498.728 52.384 498.6 53.28H472.424C473.128 60.32 477.608 63.84 483.368 63.84C488.488 63.84 491.944 61.728 493.864 57.312L498.28 61.088C495.272 66.528 489.256 68.96 483.24 68.96ZM472.552 48.672H492.392V48.608C492.392 42.528 488.552 38.816 482.664 38.816C477.672 38.816 473.448 42.144 472.552 48.672Z" fill="#0E794E"/>
<path d="M423.889 68V20.96H440.145C453.777 20.96 462.033 28.832 462.033 43.872C462.033 58.912 453.777 68 440.145 68H423.889ZM429.969 62.496H439.633C449.681 62.496 456.017 55.84 456.017 43.872C456.017 31.712 449.681 26.464 439.633 26.464H429.969V62.496Z" fill="#0E794E"/>
</svg>
