<?xml version="1.0" encoding="utf-8"?>
<!-- Generator: Adobe Illustrator 26.5.0, SVG Export Plug-In . SVG Version: 6.00 Build 0)  -->
<svg version="1.1" id="Layer_1" xmlns="http://www.w3.org/2000/svg" xmlns:xlink="http://www.w3.org/1999/xlink" x="0px" y="0px"
	 viewBox="0 0 128 120.6" style="enable-background:new 0 0 128 120.6;" xml:space="preserve">
<style type="text/css">
	.st0{fill:#67B490;}
	.st1{fill:#0F404B;}
</style>
<g id="Layer_2_00000107577962429633552390000016099590601021717127_">
	<circle class="st0" cx="11.9" cy="80.9" r="5.6"/>
	<circle class="st0" cx="116" cy="96.4" r="5.6"/>
	<circle class="st0" cx="116" cy="78.1" r="4"/>
	<circle class="st0" cx="48.2" cy="10" r="4"/>
	<path class="st0" d="M13.4,72.5h-2.8c-1.7,0-3-1.3-3-3V45.6c0-1.7,1.3-3,3-3h2.8c1.7,0,3,1.3,3,3v23.9C16.4,71.2,15,72.5,13.4,72.5
		z"/>
	<path class="st0" d="M93.9,8.3v4.2c0,1.3-1,2.3-2.3,2.3H79c-1.3,0-2.3-1-2.3-2.3V8.3C76.7,7,77.7,6,79,6h12.6
		C92.9,6,93.9,7,93.9,8.3z"/>
</g>
<g id="Layer_1_00000176725811238100241630000008080142605808392592_">
	<path class="st1" d="M116,79.6c0.6,0,1-0.4,1-1v-65c0-2.8-2.2-5-5-5H80c-0.6,0-1,0.4-1,1c0,0.6,0.4,1,1,1h32c1.7,0,3,1.3,3,3v47
		H97.5l0.4-0.7c0.7-1.3,1.1-2.8,1.1-4.3c0-5-4-9-9-9s-9,4-9,9c0,1.5,0.4,2.9,1.1,4.3l0.4,0.7H65.1V40.9c0-0.4-0.3-0.8-0.6-0.9
		c-0.1,0-0.2-0.1-0.4-0.1c-0.3,0-0.6,0.1-0.8,0.3C62,41.7,60,42.6,58,42.6c-3.9,0-7-3.1-7-7s3.1-7,7-7c1.8,0,3.6,0.7,4.9,2
		c0.1,0.4,0.5,0.6,0.8,0.7l0,0c0.1,0,0.2,0.1,0.3,0.1c0.1,0,0.2,0,0.4-0.1c0.4-0.1,0.6-0.5,0.6-0.9V10.6h4c0.6,0,1-0.4,1-1
		c0-0.6-0.4-1-1-1H59c-0.6,0-1,0.4-1,1c0,0.6,0.4,1,1,1h4v17.5l-0.6-0.4C61,27,59.5,26.6,58,26.6c-5,0-9,4-9,9s4,9,9,9
		c1.5,0,2.9-0.4,4.3-1.1l0.7-0.4v17.5H43.3c-0.4,0-0.8,0.3-0.9,0.6c-0.1,0.2-0.3,0.8,0.6,1.4c1.3,1.3,2,3.1,2,4.9c0,3.9-3.1,7-7,7
		s-7-3.1-7-7c0-2,0.9-3.9,2.4-5.2c0.3-0.3,0.4-0.7,0.3-1.1c-0.1-0.4-0.5-0.6-0.9-0.6H13v-47c0-1.7,1.3-3,3-3h32c0.6,0,1-0.4,1-1
		c0-0.6-0.4-1-1-1H16c-2.8,0-5,2.2-5,5v56c0,0.6,0.4,1,1,1s1-0.4,1-1v-7h17.5l-0.4,0.7c-0.7,1.3-1.1,2.8-1.1,4.3c0,5,4,9,9,9
		s9-4,9-9c0-1.5-0.4-2.9-1.1-4.3l-0.4-0.7H63v19.7c0,0.4,0.3,0.8,0.6,0.9c0.1,0,0.2,0.1,0.4,0.1c0.3,0,0.6-0.1,0.7-0.3
		c1.3-1.5,3.2-2.4,5.2-2.4c3.9,0,7,3.1,7,7s-3.1,7-7,7c-2,0-3.9-0.9-5.2-2.4c-0.2-0.2-0.5-0.3-0.8-0.3c-0.1,0-0.2,0-0.4,0.1
		c-0.4,0.1-0.6,0.5-0.6,0.9v19.7H16c-1.7,0-3-1.3-3-3v-29c0-0.6-0.4-1-1-1s-1,0.4-1,1v29c0,2.8,2.2,5,5,5h96c2.8,0,5-2.2,5-5V96.1
		c0-0.6-0.4-1-1-1s-1,0.4-1,1v13.5c0,1.7-1.3,3-3,3H65V95.1l0.7,0.4c1.3,0.7,2.8,1.1,4.3,1.1c5,0,9-4,9-9s-4-9-9-9
		c-1.5,0-2.9,0.4-4.3,1.1L65,80.1V62.6h19.7c0.4,0,0.8-0.3,0.9-0.6c0.1-0.4,0-0.8-0.3-1.1c-1.5-1.3-2.4-3.2-2.4-5.3c0-3.9,3.1-7,7-7
		s7,3.1,7,7c0,2-0.9,3.9-2.4,5.3c-0.3,0.3-0.4,0.7-0.3,1.1c0.1,0.4,0.5,0.6,0.9,0.6h19.7v16C115,79.2,115.5,79.6,116,79.6z"/>
</g>
</svg>
