<?xml version="1.0" encoding="utf-8"?>
<!-- Generator: Adobe Illustrator 26.5.0, SVG Export Plug-In . SVG Version: 6.00 Build 0)  -->
<svg version="1.1" id="Layer_1" xmlns="http://www.w3.org/2000/svg" xmlns:xlink="http://www.w3.org/1999/xlink" x="0px" y="0px"
	 viewBox="0 0 156 136" style="enable-background:new 0 0 156 136;" xml:space="preserve">
<style type="text/css">
	.st0{fill:#68B490;}
	.st1{fill:none;stroke:#0D3F4A;stroke-width:3;stroke-linecap:round;stroke-miterlimit:10;}
	.st2{fill:#0D3F4A;}
</style>
<g>
	<path class="st0" d="M142.9,93.6H102c-2.8,0-5.1-2.3-5.1-5.1V66.3c0-2.8,2.3-5.1,5.1-5.1h40.9c2.8,0,5.1,2.3,5.1,5.1v22.1
		C148,91.2,145.7,93.6,142.9,93.6z"/>
	<path class="st0" d="M54,65.2H13.1c-2.8,0-5.1-2.3-5.1-5.1v-9.5c0-2.8,2.3-5.1,5.1-5.1H54c2.8,0,5.1,2.3,5.1,5.1v9.5
		C59,63,56.8,65.2,54,65.2z"/>
	<path class="st1" d="M118,98.8V18.4c0-5.3-4.6-9.6-10.3-9.6H38.3c-5.7,0-10.3,4.3-10.3,9.6v80.4"/>
	<path class="st1" d="M38,27.2h70"/>
	<path class="st2" d="M40.5,20.5c1.2,0,2.3-1,2.3-2.3c0-1.2-1-2.3-2.3-2.3c-1.2,0-2.3,1-2.3,2.3S39.2,20.5,40.5,20.5z"/>
	<path class="st2" d="M49.3,20.5c1.2,0,2.3-1,2.3-2.3c0-1.2-1-2.3-2.3-2.3S47,17,47,18.2C47,19.5,48.1,20.5,49.3,20.5z"/>
	<path class="st2" d="M58.1,20.5c1.2,0,2.3-1,2.3-2.3c0-1.2-1-2.3-2.3-2.3s-2.3,1-2.3,2.3C55.9,19.5,56.9,20.5,58.1,20.5z"/>
	<path class="st1" d="M41.8,88.8h30"/>
	<path class="st0" d="M64,128.8H44.2c-2.8,0-5.1-2.3-5.1-5.1v-16.9c0-2.8,2.3-5.1,5.1-5.1H64c2.8,0,5.1,2.3,5.1,5.1v16.9
		C69.1,126.4,66.8,128.8,64,128.8z"/>
	<path class="st1" d="M18,110.3h110"/>
</g>
</svg>
